<svg width="28" height="29" viewBox="0 0 28 29" fill="none" xmlns="http://www.w3.org/2000/svg">
<g id="642440a2da8d9a184c765139_hand%20icon.svg">
<path id="Vector" d="M10.2809 6.88603C10.0194 6.3861 9.96116 5.80445 10.1184 5.26259C10.2756 4.72073 10.636 4.26056 11.1245 3.97821C11.613 3.69585 12.1917 3.61315 12.7397 3.74738C13.2877 3.88161 13.7626 4.22239 14.0653 4.69853L17.3466 10.3751" stroke="#FEFCFF" stroke-width="1.5" stroke-linecap="round" stroke-linejoin="round"/>
<path id="Vector_2" d="M7.37224 10.5827L5.62224 7.55303C5.36072 7.05309 5.30247 6.47145 5.45967 5.92958C5.61687 5.38772 5.97736 4.92755 6.46583 4.6452C6.9543 4.36284 7.53298 4.28015 8.08098 4.41438C8.62899 4.54861 9.10393 4.88938 9.40662 5.36553L13.1254 11.8077" stroke="#FEFCFF" stroke-width="1.5" stroke-linecap="round" stroke-linejoin="round"/>
<path id="Vector_3" d="M16.8435 18.2498C16.5553 17.7531 16.368 17.2044 16.2923 16.6351C16.2166 16.0658 16.254 15.4872 16.4023 14.9324C16.5507 14.3776 16.8071 13.8576 17.1568 13.4021C17.5065 12.9466 17.9427 12.5646 18.4404 12.278L17.3466 10.3748C17.0566 9.87158 16.9783 9.27367 17.1291 8.71267C17.2798 8.15167 17.6473 7.67354 18.1505 7.38346C18.6538 7.09338 19.2517 7.01511 19.8127 7.16587C20.3737 7.31664 20.8519 7.68408 21.142 8.18737L23.3295 11.9827C24.4898 13.9929 24.804 16.3818 24.203 18.6237C23.602 20.8657 22.135 22.777 20.1248 23.9373C18.1145 25.0977 15.7256 25.4119 13.4837 24.8109C11.2418 24.2099 9.3304 22.7429 8.17008 20.7327L3.57633 12.7702C3.4327 12.521 3.33955 12.2459 3.30222 11.9607C3.26489 11.6755 3.28409 11.3857 3.35874 11.108C3.5095 10.547 3.87695 10.0689 4.38024 9.77877C4.88353 9.48869 5.48144 9.41042 6.04243 9.56119C6.60343 9.71195 7.08156 10.0794 7.37164 10.5827L9.77789 14.7498" stroke="#FEFCFF" stroke-width="1.5" stroke-linecap="round" stroke-linejoin="round"/>
<path id="Vector_4" d="M8.87031 26.4199C7.38411 25.3948 6.14694 24.0493 5.25 22.4824" stroke="#FEFCFF" stroke-width="1.5" stroke-linecap="round" stroke-linejoin="round"/>
<path id="Vector_5" d="M19.25 3.56057C20.2484 3.55786 21.2297 3.81955 22.0942 4.31904C22.9587 4.81852 23.6756 5.53799 24.1719 6.40432" stroke="#FEFCFF" stroke-width="1.5" stroke-linecap="round" stroke-linejoin="round"/>
</g>
</svg>
