<svg xmlns="http://www.w3.org/2000/svg" width="442" height="443" viewBox="0 0 442 443" fill="none">
  <path fill-rule="evenodd" clip-rule="evenodd" d="M220.998 110.304C220.678 49.551 171.329 0.400024 110.5 0.400024C49.4725 0.400024 0 49.8726 0 110.9C0 171.729 49.1509 221.078 109.904 221.398V221.402C49.1509 221.722 0 271.071 0 331.9C0 392.927 49.4725 442.4 110.5 442.4C171.527 442.4 221 392.927 221 331.9C221 392.927 270.473 442.4 331.5 442.4C392.528 442.4 442 392.927 442 331.9C442 270.873 392.528 221.4 331.5 221.4C392.528 221.4 442 171.927 442 110.9C442 49.8726 392.528 0.400024 331.5 0.400024C270.671 0.400024 221.322 49.5509 221.002 110.304H220.998ZM330.901 221.402V221.398C331.101 221.399 331.3 221.4 331.5 221.4C331.3 221.4 331.101 221.401 330.901 221.402ZM221.002 331.301C221.001 331.501 221 331.7 221 331.9C221 331.7 220.999 331.501 220.998 331.301H221.002Z" fill="url(#paint0_linear_39_1221)" fill-opacity="0.12"/>
  <defs>
    <linearGradient id="paint0_linear_39_1221" x1="221" y1="0.400024" x2="221" y2="442.4" gradientUnits="userSpaceOnUse">
      <stop stop-color="#D100FD"/>
      <stop offset="1" stop-color="#99DFFF"/>
    </linearGradient>
  </defs>
</svg>